<?xml version="1.0" standalone="no"?>
<!DOCTYPE svg PUBLIC "-//W3C//DTD SVG 20010904//EN"
 "http://www.w3.org/TR/2001/REC-SVG-20010904/DTD/svg10.dtd">
<svg version="1.0" xmlns="http://www.w3.org/2000/svg"
 width="178.000000pt" height="178.000000pt" viewBox="0 0 178.000000 178.000000"
 preserveAspectRatio="xMidYMid meet">
<metadata>
Created by potrace 1.14, written by Peter Selinger 2001-2017
</metadata>
<g transform="translate(0.000000,178.000000) scale(0.100000,-0.100000)"
fill="#000000" stroke="none">
<path d="M622 1157 c-194 -157 -182 -145 -182 -188 0 -36 2 -39 30 -40 17 -1
33 -2 38 -3 4 -1 34 -5 67 -9 111 -14 140 -19 146 -23 4 -2 7 -19 7 -37 0 -17
0 -60 1 -94 l1 -62 52 -16 c28 -8 55 -15 58 -15 4 0 7 47 6 105 l-1 105 52 -5
52 -5 31 44 c16 25 30 49 30 54 0 5 -21 10 -47 11 -47 1 -102 9 -112 15 -3 2
-5 56 -5 120 1 64 -1 116 -5 117 -3 1 -32 2 -64 2 l-59 2 -96 -78z m101 -111
l3 -48 -75 5 c-42 3 -78 6 -81 6 -3 1 29 21 70 46 41 24 75 43 77 42 1 -2 4
-24 6 -51z"/>
<path d="M4 1153 c3 -43 8 -130 11 -193 7 -138 14 -233 17 -234 2 -1 28 -14
59 -29 l57 -27 73 48 c41 26 104 68 141 91 37 24 66 47 63 51 -2 4 -5 32 -6
63 l-2 55 -122 36 c-67 20 -127 36 -132 36 -6 0 -15 -15 -21 -32 -9 -31 -10
-31 -12 -8 -4 46 -8 105 -9 147 -1 40 -2 42 -48 57 -75 26 -74 26 -69 -61z
m285 -253 c0 -3 -33 -26 -74 -52 -60 -37 -75 -44 -76 -30 0 9 -3 50 -5 89 l-5
73 80 -38 c44 -20 80 -39 80 -42z"/>
<path d="M1136 943 c-3 -3 -6 -28 -6 -54 0 -48 0 -48 -25 -39 -33 13 -65 -17
-66 -62 -3 -68 1 -117 10 -141 9 -24 15 -26 68 -26 l58 1 0 155 c0 131 -2 156
-16 163 -9 5 -19 7 -23 3z m-12 -131 c2 -4 6 -39 7 -77 2 -56 -1 -71 -15 -79
-12 -8 -19 -7 -26 4 -11 17 -14 143 -3 153 9 9 31 9 37 -1z"/>
<path d="M1222 908 c4 -27 35 -32 41 -8 6 23 0 30 -25 30 -14 0 -19 -6 -16
-22z"/>
<path d="M1352 852 c-30 -5 -42 -32 -46 -100 -4 -81 8 -118 42 -129 15 -5 37
-7 48 -5 21 3 44 39 44 67 0 17 -39 21 -41 5 -1 -5 -2 -16 -3 -22 0 -7 -10
-13 -21 -13 -16 0 -21 8 -23 42 l-3 41 45 -3 46 -2 0 36 c0 61 -33 92 -88 83z
m45 -64 c3 -24 0 -28 -22 -28 -20 0 -25 5 -25 23 0 46 41 50 47 5z"/>
<path d="M1220 735 c0 -108 1 -115 20 -115 11 0 20 3 21 8 0 4 1 55 2 115 2
105 2 107 -20 107 -23 0 -23 -2 -23 -115z"/>
</g>
</svg>
